PathFileType	3	(X/Y/Z)	D:\minhoCalibration\240510\subject5_KPNP\preferred\preferred06.trc
DataRate	CameraRate	NumFrames	NumMarkers	Units	OrigDataRate	OrigDataStartFrame	OrigNumFrames
200.0	200.0	15	10	mm	200.0	281	159	
Frame#	Time	Left_Ankle_Outer1			Left_Ankle_Inner1			Left_Knee_Outer1			Left_Knee_Inner1			Left_Wrist1			Right_Wrist1			Right_Knee_Inner1			Right_Knee_Outer1			Right_Ankle_Inner1			Right_Ankle_Outer1			
		X1	Y1	Z1	X2	Y2	Z2	X3	Y3	Z3	X4	Y4	Z4	X5	Y5	Z5	X6	Y6	Z6	X7	Y7	Z7	X8	Y8	Z8	X9	Y9	Z9	X10	Y10	Z10	
281	1.395	-365.48294	82.887207	-645.79047	-392.67404	102.01646	-601.94458	-175.86452	527.03729	-618.15936	-204.68974	512.89838	-528.42346	-259.05389	961.0144	-755.02838	-300.91403	1192.7914	-519.06885	-305.30121	1026.3364	-68.643555	-306.10245	1112.5449	-94.449417	-426.50574	1013.8383	360.09265	-473.2854	1099.8125	339.1225
282	1.4	-364.961	83.673889	-645.30542	-392.93964	102.72483	-601.18152	-176.52869	527.98822	-613.9671	-206.26318	513.50769	-524.72662	-256.92953	961.17786	-751.82019	-305.19852	1194.0063	-518.61066	-307.07187	1026.4756	-67.854462	-305.94849	1112.5631	-93.050148	-433.23706	1011.4971	360.88974	-475.11932	1099.3678	341.39224
283	1.405	-364.44925	84.528542	-644.8775	-392.87201	103.14062	-600.97314	-177.08694	529.1059	-609.19769	-208.52472	514.06897	-520.61963	-254.18416	961.81396	-748.81677	-309.78461	1195.0751	-517.62042	-310.3237	1026.7749	-67.068626	-306.08102	1112.0725	-91.543289	-438.4071	1008.863	361.61487	-477.00436	1097.5621	342.31985
284	1.41	-363.91705	85.370461	-644.36615	-392.9299	103.74795	-600.47064	-177.60979	530.15192	-603.92108	-211.46199	514.87634	-516.25824	-252.48813	961.77917	-744.63574	-314.46503	1196.4177	-517.68274	-314.78491	1026.7385	-65.979088	-307.0748	1111.3213	-90.069679	-441.38205	1004.9108	362.56671	-481.2113	1093.752	342.75375
285	1.415	-363.53461	86.200951	-643.79419	-392.92496	104.11032	-600.22833	-178.38341	531.10748	-598.37085	-214.59595	515.61719	-511.97964	-249.24355	962.33618	-742.25293	-318.74988	1197.6333	-518.16455	-319.94073	1026.606	-65.261581	-308.72754	1110.5573	-88.876305	-441.93481	1001.5958	362.14731	-484.95352	1089.0531	343.62476
286	1.42	-363.2666	86.950958	-643.17773	-393.32062	103.99129	-600.36243	-179.35347	531.98804	-592.64758	-218.10468	516.3504	-507.76898	-247.06714	962.60791	-738.84686	-322.99243	1199.5625	-517.86847	-325.19418	1026.5068	-65.261292	-312.0914	1110.452	-87.664749	-442.24799	997.94434	362.37103	-488.49753	1083.9513	344.56329
287	1.425	-363.11578	87.541397	-642.4729	-393.80078	104.41447	-599.63654	-180.46361	532.59308	-586.85266	-221.77214	516.97656	-503.6524	-244.86597	962.40369	-735.88031	-326.80161	1200.0514	-518.8941	-330.95224	1026.3519	-65.330627	-317.19745	1111.0708	-86.815308	-443.07547	993.7962	362.60043	-491.87726	1078.1746	345.63712
288	1.43	-363.18155	87.988548	-641.58789	-393.97632	103.827	-600.67004	-181.51344	533.48425	-581.52417	-225.52	517.62549	-499.84644	-243.47449	961.84912	-732.17181	-330.16534	1200.9675	-519.43701	-333.58417	1026.8693	-66.013344	-324.41168	1112.4398	-86.286659	-443.13379	989.7334	363.68195	-495.18936	1072.3918	346.57889
289	1.435	-363.51834	88.35907	-640.80212	-394.66	104.22052	-598.98474	-182.94995	533.96503	-576.26593	-229.35426	518.07092	-496.33536	-241.38474	961.77594	-729.12915	-332.79724	1201.9272	-520.30878	-335.95255	1027.5668	-65.900452	-332.55939	1114.0958	-86.118431	-442.57761	985.1828	363.53613	-498.00745	1065.9749	347.19797
290	1.44	-364.06168	88.542351	-639.94781	-395.67029	103.84594	-598.27014	-184.20705	534.4447	-571.71558	-232.98483	518.34082	-493.32083	-239.71539	961.36401	-725.95087	-335.30966	1202.5625	-521.48486	-337.87311	1028.4675	-65.159332	-341.64075	1115.0028	-86.101486	-441.18106	980.77692	364.2858	-500.43112	1059.0223	347.8851
291	1.445	-364.77716	88.536552	-638.98883	-396.39508	103.62283	-597.78113	-185.78766	534.72852	-567.63086	-236.58511	518.50391	-490.75702	-238.07736	960.83142	-722.90106	-337.3783	1203.0934	-521.98114	-339.36694	1029.4227	-64.235542	-350.89148	1115.1494	-86.317696	-440.19992	977.64923	364.91611	-502.86441	1052.197	348.88861
292	1.45	-365.76312	88.402077	-638.11548	-397.8793	102.95087	-596.69	-187.58551	534.71991	-564.15686	-240.036	518.48138	-488.48859	-236.56653	960.21362	-719.93512	-339.14771	1203.7466	-522.19501	-340.96146	1030.3738	-63.328056	-360.00104	1114.3304	-86.427948	-438.6395	973.85321	367.36185	-505.17209	1045.4895	349.77875
293	1.455	-366.70093	88.147026	-637.24109	-398.78864	102.54681	-595.73187	-189.49428	534.63617	-561.3866	-243.22372	518.27539	-486.60034	-235.44812	959.40271	-716.86249	-340.75522	1204.2432	-522.12427	-342.94135	1031.1176	-62.449711	-368.49524	1112.8186	-86.428337	-438.27615	969.54553	365.84821	-507.14182	1038.5463	350.63132
294	1.46	-367.75046	87.773384	-636.53955	-399.74536	101.95946	-594.92499	-191.33951	534.29834	-559.35822	-246.05678	517.78479	-485.27713	-233.81946	958.87671	-714.34869	-342.18878	1204.6223	-522.14935	-345.50446	1031.2622	-61.694908	-376.39752	1110.8373	-86.29467	-437.72028	965.27057	366.24725	-509.16367	1031.5565	351.14783
295	1.465	-368.80392	87.234749	-635.87421	-401.13596	101.05698	-594.31146	-193.38869	533.6488	-557.77887	-248.65207	517.25409	-484.20279	-231.7953	958.84357	-711.99731	-343.88235	1205.2599	-520.2652	-348.87344	1030.463	-60.962833	-383.1481	1108.462	-86.00824	-437.60382	960.66644	366.28439	-511.42163	1024.2168	351.4949
